<?xml version="1.0" encoding="UTF-8" standalone="no"?>
<svg
   xmlns:dc="http://purl.org/dc/elements/1.1/"
   xmlns:cc="http://creativecommons.org/ns#"
   xmlns:rdf="http://www.w3.org/1999/02/22-rdf-syntax-ns#"
   xmlns:svg="http://www.w3.org/2000/svg"
   xmlns="http://www.w3.org/2000/svg"
   xmlns:sodipodi="http://sodipodi.sourceforge.net/DTD/sodipodi-0.dtd"
   xmlns:inkscape="http://www.inkscape.org/namespaces/inkscape"
   version="1.1"
   id="Layer_1"
   x="0px"
   y="0px"
   width="20"
   height="20"
   viewBox="0 0 20.000001 20"
   enable-background="new 0 0 32.579 31.774"
   xml:space="preserve"
   inkscape:version="0.91 r13725"
   sodipodi:docname="githublogo1.svg"><metadata
     id="metadata9"><rdf:RDF><cc:Work
         rdf:about=""><dc:format>image/svg+xml</dc:format><dc:type
           rdf:resource="http://purl.org/dc/dcmitype/StillImage" /><dc:title></dc:title></cc:Work></rdf:RDF></metadata><defs
     id="defs7" /><sodipodi:namedview
     pagecolor="#ffffff"
     bordercolor="#666666"
     borderopacity="1"
     objecttolerance="10"
     gridtolerance="10"
     guidetolerance="10"
     inkscape:pageopacity="0"
     inkscape:pageshadow="2"
     inkscape:window-width="1366"
     inkscape:window-height="704"
     id="namedview5"
     showgrid="false"
     inkscape:zoom="13.500963"
     inkscape:cx="-2.9999025"
     inkscape:cy="8.276846"
     inkscape:window-x="0"
     inkscape:window-y="27"
     inkscape:window-maximized="1"
     inkscape:current-layer="Layer_1" /><path
     d="m 10.052374,9.1142858e-4 c -5.5221313,0 -9.99999946,4.59041397142 -9.99999946,10.25400157142 0,4.529359 2.86512346,8.372644 6.83958466,9.72843 0.4997236,0.09379 0.6826692,-0.222817 0.6826692,-0.494101 0,-0.243588 -0.0086,-0.888121 -0.013506,-1.744143 C 4.7794906,18.364455 4.1925915,16.37043 4.1925915,16.37043 3.7376833,15.185848 3.0820262,14.870504 3.0820262,14.870504 c -0.9079746,-0.636351 0.068758,-0.623133 0.068758,-0.623133 1.0037449,0.07239 1.5317084,1.056808 1.5317084,1.056808 0.8920131,1.566646 2.3402296,1.114717 2.9105531,0.852246 0.090859,-0.662787 0.3493155,-1.114716 0.6347842,-1.370894 -2.2205167,-0.258694 -4.5552211,-1.138633 -4.5552211,-5.0675196 0,-1.119122 0.3898335,-2.034309 1.029529,-2.751227 -0.1025232,-0.259324 -0.4463134,-1.301656 0.098226,-2.713461 0,0 0.8398305,-0.27569 2.7497083,1.051143 0.7974706,-0.227223 1.6532627,-0.341149 2.5035299,-0.344926 0.84904,0.0038 1.704218,0.117703 2.504144,0.344926 1.90865,-1.326833 2.747253,-1.051143 2.747253,-1.051143 0.545767,1.411805 0.20259,2.454137 0.09945,2.713461 0.640309,0.716918 1.027688,1.632105 1.027688,2.751227 0,3.9389566 -2.338389,4.8056786 -4.566273,5.0593376 0.359753,0.316603 0.678372,0.942253 0.678372,1.898983 0,1.370892 -0.01228,2.476797 -0.01228,2.81291 0,0.274431 0.179876,0.592921 0.688194,0.492842 3.970163,-1.358304 6.832218,-5.19907 6.832218,-9.727171 0,-5.6635876 -4.477255,-10.25400157142 -10,-10.25400157142 z"
     id="path3"
     inkscape:connector-curvature="0"
     style="clip-rule:evenodd;fill-rule:evenodd" /></svg>
