<?xml version="1.0" encoding="UTF-8" standalone="no"?>
<svg
   xmlns:dc="http://purl.org/dc/elements/1.1/"
   xmlns:cc="http://creativecommons.org/ns#"
   xmlns:rdf="http://www.w3.org/1999/02/22-rdf-syntax-ns#"
   xmlns:svg="http://www.w3.org/2000/svg"
   xmlns="http://www.w3.org/2000/svg"
   xmlns:sodipodi="http://sodipodi.sourceforge.net/DTD/sodipodi-0.dtd"
   xmlns:inkscape="http://www.inkscape.org/namespaces/inkscape"
   version="1.0"
   width="17"
   height="21"
   id="svg1903"
   inkscape:version="0.91 r13725"
   sodipodi:docname="gnomelogo.svg">
  <metadata
     id="metadata15">
    <rdf:RDF>
      <cc:Work
         rdf:about="">
        <dc:format>image/svg+xml</dc:format>
        <dc:type
           rdf:resource="http://purl.org/dc/dcmitype/StillImage" />
        <dc:title></dc:title>
      </cc:Work>
    </rdf:RDF>
  </metadata>
  <sodipodi:namedview
     pagecolor="#ffffff"
     bordercolor="#666666"
     borderopacity="1"
     objecttolerance="10"
     gridtolerance="10"
     guidetolerance="10"
     inkscape:pageopacity="0"
     inkscape:pageshadow="2"
     inkscape:window-width="1366"
     inkscape:window-height="704"
     id="namedview13"
     showgrid="false"
     inkscape:zoom="15.574029"
     inkscape:cx="18.971278"
     inkscape:cy="7.5996389"
     inkscape:window-x="0"
     inkscape:window-y="27"
     inkscape:window-maximized="1"
     inkscape:current-layer="svg1903">
    <inkscape:grid
       type="xygrid"
       id="grid3343" />
  </sodipodi:namedview>
  <defs
     id="defs1905" />
  <g
     transform="matrix(0.05568795,0,0,0.05568795,-11.467733,-13.702367)"
     id="layer1">
    <g
       transform="translate(925.8326,120.8762)"
       id="g3963">
      <g
         transform="matrix(2.914897,0,0,2.914897,-717.5904,128.5015)"
         style="fill:#000000;fill-opacity:1;fill-rule:nonzero;stroke:none;stroke-miterlimit:4"
         id="g3771">
        <g
           style="fill:#cccccc;fill-opacity:1"
           id="g3773">
          <path
             d="M 86.068,0 C 61.466,0 56.851,35.041 70.691,35.041 84.529,35.041 110.671,0 86.068,0 Z"
             style="fill:#cccccc;fill-opacity:1"
             id="path3775"
             inkscape:connector-curvature="0" />
          <path
             d="M 45.217,30.699 C 52.586,31.149 60.671,2.577 46.821,4.374 32.976,6.171 37.845,30.249 45.217,30.699 Z"
             style="fill:#cccccc;fill-opacity:1"
             id="path3777"
             inkscape:connector-curvature="0" />
          <path
             d="M 11.445,48.453 C 16.686,46.146 12.12,23.581 3.208,29.735 -5.7,35.89 6.204,50.759 11.445,48.453 Z"
             style="fill:#cccccc;fill-opacity:1"
             id="path3779"
             inkscape:connector-curvature="0" />
          <path
             d="M 26.212,36.642 C 32.451,35.37 32.793,9.778 21.667,14.369 10.539,18.961 19.978,37.916 26.212,36.642 l 0,0 z"
             style="fill:#cccccc;fill-opacity:1"
             id="path3781"
             inkscape:connector-curvature="0" />
          <path
             d="m 58.791,93.913 c 1.107,8.454 -6.202,12.629 -13.36,7.179 C 22.644,83.743 83.16,75.088 79.171,51.386 75.86,31.712 15.495,37.769 8.621,68.553 3.968,89.374 27.774,118.26 52.614,118.26 c 12.22,0 26.315,-11.034 28.952,-25.012 C 83.58,82.589 57.867,86.86 58.791,93.913 l 0,0 z"
             style="fill:#cccccc;fill-opacity:1"
             id="path3783"
             inkscape:connector-curvature="0" />
        </g>
      </g>
    </g>
  </g>
</svg>
